<?xml version="1.0" encoding="UTF-8"?>
<svg xmlns="http://www.w3.org/2000/svg" viewBox="0 0 640 760" role="img" aria-labelledby="title desc">
  <title id="title">Check in at the SF Node</title>
  <desc id="desc">Scan with your phone to check in at https://foresightmap.vercel.app/checkin/sf</desc>
  <defs>
    <linearGradient id="frame" x1="0" y1="0" x2="1" y2="1">
      <stop offset="0%" stop-color="#eef2ff"/>
      <stop offset="100%" stop-color="#e0f2fe"/>
    </linearGradient>
  </defs>
  <rect x="0" y="0" width="640" height="760" rx="40" ry="40" fill="url(#frame)" />
  <g transform="translate(80 60)">
    <text x="0" y="30" fill="#0369a1" font-family="Inter, system-ui, sans-serif" font-size="18" font-weight="600" letter-spacing="4">FORESIGHT</text>
    <text x="0" y="70" fill="#0f172a" font-family="Inter, system-ui, sans-serif" font-size="34" font-weight="700">Check in at the SF Node</text>
    <text x="0" y="100" fill="#475569" font-family="Inter, system-ui, sans-serif" font-size="16">Tap or scan to mark yourself here today. +1 nanowheel.</text>
  </g>
  <g transform="translate(80 160)">
    <rect x="-16" y="-16" width="512" height="512" rx="24" ry="24" fill="#ffffff" stroke="#c7d2fe" stroke-width="2" />
    <g transform="scale(1)"><path fill="#ffffff" d="M0 0h39v39H0z"/><path stroke="#0f172a" d="M1 1.5h7m5 0h6m1 0h1m1 0h1m6 0h1m1 0h7M1 2.5h1m5 0h1m4 0h1m2 0h1m1 0h1m1 0h3m3 0h1m1 0h1m1 0h1m1 0h1m5 0h1M1 3.5h1m1 0h3m1 0h1m2 0h6m2 0h1m1 0h3m3 0h2m3 0h1m1 0h3m1 0h1M1 4.5h1m1 0h3m1 0h1m2 0h1m2 0h1m2 0h1m2 0h2m2 0h2m1 0h2m3 0h1m1 0h3m1 0h1M1 5.5h1m1 0h3m1 0h1m1 0h1m1 0h1m1 0h2m1 0h2m1 0h2m2 0h3m2 0h1m2 0h1m1 0h3m1 0h1M1 6.5h1m5 0h1m2 0h1m3 0h1m1 0h1m2 0h1m2 0h4m5 0h1m5 0h1M1 7.5h7m1 0h1m1 0h1m1 0h1m1 0h1m1 0h1m1 0h1m1 0h1m1 0h1m1 0h1m1 0h1m1 0h1m1 0h7M9 8.5h1m3 0h2m1 0h5m2 0h3m2 0h2M3 9.5h2m2 0h4m2 0h2m1 0h1m2 0h1m3 0h3m1 0h2m1 0h2m1 0h1M1 10.5h2m2 0h2m1 0h4m3 0h3m3 0h1m4 0h1m2 0h1m2 0h1m1 0h2M1 11.5h1m2 0h1m1 0h5m1 0h1m2 0h2m1 0h1m1 0h4m2 0h1m2 0h2m1 0h1M1 12.5h1m2 0h1m3 0h1m1 0h4m1 0h1m1 0h4m1 0h1m1 0h1m1 0h3m3 0h4m1 0h1M1 13.5h2m2 0h3m1 0h1m2 0h1m3 0h2m2 0h1m1 0h6m2 0h2m1 0h5M2 14.5h2m4 0h1m3 0h1m1 0h3m4 0h1m3 0h1m1 0h3m1 0h3m1 0h3M5 15.5h1m1 0h1m2 0h1m1 0h1m1 0h1m2 0h1m3 0h6m2 0h2m2 0h1m1 0h2M4 16.5h3m1 0h4m1 0h1m1 0h1m4 0h3m1 0h2m1 0h1m1 0h2M3 17.5h5m2 0h3m6 0h1m4 0h1m1 0h1m1 0h1m5 0h3M1 18.5h2m1 0h3m1 0h1m1 0h1m1 0h3m2 0h1m2 0h3m3 0h3m2 0h1m2 0h2m1 0h1M2 19.5h4m1 0h4m1 0h1m7 0h1m1 0h2m1 0h1m2 0h1m1 0h3m3 0h2M2 20.5h1m1 0h1m1 0h1m1 0h1m2 0h2m1 0h3m4 0h1m5 0h1m1 0h1m4 0h1m1 0h2M1 21.5h1m1 0h1m1 0h1m1 0h1m2 0h2m5 0h2m1 0h1m1 0h3m2 0h1m1 0h2m2 0h2m2 0h1M3 22.5h1m4 0h1m5 0h2m5 0h3m3 0h1m4 0h1M2 23.5h1m1 0h1m1 0h2m1 0h1m1 0h2m4 0h2m1 0h2m3 0h2m3 0h2m1 0h2M1 24.5h1m2 0h3m1 0h1m4 0h1m1 0h2m1 0h3m2 0h4m1 0h3m3 0h4M2 25.5h4m1 0h1m2 0h1m1 0h1m1 0h1m1 0h1m2 0h1m1 0h1m2 0h1m5 0h2m1 0h1m1 0h1m1 0h1M8 26.5h2m3 0h1m1 0h4m1 0h2m2 0h1m2 0h2m1 0h5m2 0h1M2 27.5h2m2 0h2m1 0h1m1 0h3m2 0h1m1 0h1m4 0h1m1 0h1m1 0h1m1 0h1m3 0h4M1 28.5h1m1 0h3m3 0h3m1 0h1m1 0h6m2 0h1m1 0h1m3 0h2M4 29.5h4m2 0h1m2 0h1m1 0h1m1 0h1m1 0h4m1 0h1m1 0h1m1 0h6m1 0h1m1 0h1M9 30.5h1m1 0h1m2 0h5m3 0h5m2 0h1m3 0h5M1 31.5h7m1 0h2m3 0h3m1 0h1m1 0h1m1 0h2m5 0h1m1 0h1m1 0h2m1 0h2M1 32.5h1m5 0h1m2 0h4m1 0h1m4 0h4m1 0h1m1 0h1m1 0h1m3 0h2m2 0h1M1 33.5h1m1 0h3m1 0h1m2 0h3m3 0h1m1 0h1m3 0h3m4 0h6m1 0h2M1 34.5h1m1 0h3m1 0h1m1 0h2m1 0h2m4 0h1m4 0h1m4 0h1m2 0h1m1 0h2M1 35.5h1m1 0h3m1 0h1m1 0h1m1 0h7m4 0h2m3 0h3m1 0h6M1 36.5h1m5 0h1m4 0h1m1 0h2m2 0h3m2 0h4m1 0h1m2 0h5M1 37.5h7m9 0h1m1 0h2m3 0h3m4 0h1m2 0h4"/></g>
  </g>
  <g transform="translate(80 710)">
    <text x="0" y="0" fill="#0f172a" font-family="ui-monospace, SFMono-Regular, Menlo, monospace" font-size="18">https://foresightmap.vercel.app/checkin/sf</text>
  </g>
</svg>
